<?xml version="1.0" encoding="UTF-8"?>
<svg xmlns="http://www.w3.org/2000/svg" xmlns:xlink="http://www.w3.org/1999/xlink" width="1280" height="720" viewBox="0 0 1280 720">
<defs>
<g>
<g id="glyph-0-0">
<path d="M 0.484375 -1.21875 C 0.472656 -1.25 0.457031 -1.289062 0.4375 -1.34375 C 0.414062 -1.394531 0.394531 -1.453125 0.375 -1.515625 C 0.351562 -1.578125 0.335938 -1.628906 0.328125 -1.671875 C 0.398438 -1.679688 0.476562 -1.722656 0.5625 -1.796875 C 0.644531 -1.878906 0.738281 -1.984375 0.84375 -2.109375 C 0.894531 -2.160156 0.976562 -2.253906 1.09375 -2.390625 C 1.207031 -2.535156 1.332031 -2.703125 1.46875 -2.890625 C 1.601562 -3.078125 1.738281 -3.28125 1.875 -3.5 C 2.019531 -3.726562 2.15625 -3.957031 2.28125 -4.1875 L 2.6875 -3.953125 C 2.40625 -3.484375 2.101562 -3.03125 1.78125 -2.59375 C 1.457031 -2.164062 1.132812 -1.789062 0.8125 -1.46875 L 0.8125 -1.453125 C 0.8125 -1.453125 0.796875 -1.445312 0.765625 -1.4375 C 0.734375 -1.425781 0.691406 -1.40625 0.640625 -1.375 C 0.597656 -1.351562 0.5625 -1.328125 0.53125 -1.296875 C 0.5 -1.265625 0.484375 -1.238281 0.484375 -1.21875 Z M 0.484375 -1.21875 L 0.453125 -1.609375 L 0.703125 -1.78125 L 2.640625 -2.140625 C 2.628906 -2.078125 2.625 -2.003906 2.625 -1.921875 C 2.625 -1.835938 2.628906 -1.769531 2.640625 -1.71875 C 2.191406 -1.632812 1.832031 -1.5625 1.5625 -1.5 C 1.289062 -1.445312 1.082031 -1.398438 0.9375 -1.359375 C 0.789062 -1.328125 0.6875 -1.300781 0.625 -1.28125 C 0.5625 -1.257812 0.515625 -1.238281 0.484375 -1.21875 Z M 0.4375 -2.8125 C 0.425781 -2.851562 0.410156 -2.898438 0.390625 -2.953125 C 0.367188 -3.015625 0.347656 -3.070312 0.328125 -3.125 C 0.304688 -3.1875 0.285156 -3.238281 0.265625 -3.28125 C 0.328125 -3.300781 0.390625 -3.347656 0.453125 -3.421875 C 0.515625 -3.492188 0.582031 -3.585938 0.65625 -3.703125 C 0.6875 -3.753906 0.738281 -3.84375 0.8125 -3.96875 C 0.882812 -4.101562 0.960938 -4.257812 1.046875 -4.4375 C 1.140625 -4.613281 1.226562 -4.800781 1.3125 -5 C 1.40625 -5.207031 1.488281 -5.410156 1.5625 -5.609375 L 2.015625 -5.390625 C 1.898438 -5.117188 1.773438 -4.84375 1.640625 -4.5625 C 1.503906 -4.289062 1.359375 -4.023438 1.203125 -3.765625 C 1.046875 -3.515625 0.890625 -3.289062 0.734375 -3.09375 L 0.734375 -3.078125 C 0.734375 -3.078125 0.71875 -3.066406 0.6875 -3.046875 C 0.65625 -3.035156 0.617188 -3.015625 0.578125 -2.984375 C 0.535156 -2.960938 0.5 -2.9375 0.46875 -2.90625 C 0.445312 -2.875 0.4375 -2.84375 0.4375 -2.8125 Z M 0.4375 -2.8125 L 0.421875 -3.1875 L 0.65625 -3.34375 L 1.9375 -3.46875 C 1.914062 -3.40625 1.898438 -3.332031 1.890625 -3.25 C 1.890625 -3.175781 1.890625 -3.113281 1.890625 -3.0625 C 1.597656 -3.03125 1.363281 -3 1.1875 -2.96875 C 1.007812 -2.945312 0.867188 -2.925781 0.765625 -2.90625 C 0.671875 -2.882812 0.597656 -2.867188 0.546875 -2.859375 C 0.492188 -2.847656 0.457031 -2.832031 0.4375 -2.8125 Z M 0.3125 -0.359375 C 0.507812 -0.398438 0.734375 -0.445312 0.984375 -0.5 C 1.242188 -0.5625 1.515625 -0.625 1.796875 -0.6875 C 2.085938 -0.75 2.378906 -0.816406 2.671875 -0.890625 L 2.71875 -0.453125 C 2.300781 -0.359375 1.890625 -0.257812 1.484375 -0.15625 C 1.085938 -0.0507812 0.726562 0.0390625 0.40625 0.125 Z M 5.609375 -3.625 L 6.078125 -3.625 L 6.078125 -0.890625 L 5.609375 -0.890625 Z M 4.25 -5.59375 L 4.75 -5.59375 L 4.75 -0.375 C 4.75 -0.164062 4.78125 -0.046875 4.84375 -0.015625 C 4.882812 -0.00390625 4.921875 0.00390625 4.953125 0.015625 C 4.992188 0.0234375 5.035156 0.03125 5.078125 0.03125 C 5.128906 0.03125 5.195312 0.03125 5.28125 0.03125 C 5.375 0.03125 5.453125 0.03125 5.515625 0.03125 C 5.566406 0.03125 5.617188 0.0234375 5.671875 0.015625 C 5.722656 0.015625 5.765625 0.0078125 5.796875 0 C 5.828125 -0.0078125 5.851562 -0.0234375 5.875 -0.046875 C 5.90625 -0.0664062 5.925781 -0.101562 5.9375 -0.15625 C 5.945312 -0.207031 5.953125 -0.285156 5.953125 -0.390625 C 5.960938 -0.503906 5.972656 -0.632812 5.984375 -0.78125 C 6.035156 -0.726562 6.101562 -0.679688 6.1875 -0.640625 C 6.28125 -0.597656 6.363281 -0.566406 6.4375 -0.546875 C 6.4375 -0.410156 6.425781 -0.269531 6.40625 -0.125 C 6.382812 0.0078125 6.359375 0.109375 6.328125 0.171875 C 6.304688 0.234375 6.269531 0.285156 6.21875 0.328125 C 6.175781 0.367188 6.125 0.40625 6.0625 0.4375 C 5.988281 0.457031 5.90625 0.46875 5.8125 0.46875 C 5.726562 0.476562 5.644531 0.484375 5.5625 0.484375 C 5.519531 0.484375 5.460938 0.484375 5.390625 0.484375 C 5.316406 0.484375 5.238281 0.484375 5.15625 0.484375 C 5.082031 0.484375 5.023438 0.484375 4.984375 0.484375 C 4.898438 0.484375 4.8125 0.472656 4.71875 0.453125 C 4.625 0.441406 4.539062 0.414062 4.46875 0.375 C 4.414062 0.34375 4.375 0.300781 4.34375 0.25 C 4.3125 0.195312 4.285156 0.117188 4.265625 0.015625 C 4.253906 -0.0859375 4.25 -0.238281 4.25 -0.4375 Z M 2.765625 -4.703125 L 6.359375 -4.703125 L 6.359375 -4.25 L 2.765625 -4.25 Z M 2.90625 -3.625 L 3.390625 -3.625 L 3.390625 -1.8125 L 5.953125 -1.8125 L 5.953125 -1.34375 L 2.90625 -1.34375 Z "/>
</g>
<g id="glyph-0-1">
<path d="M 0.796875 -4.953125 L 5.84375 -4.953125 L 5.84375 -4.46875 L 0.796875 -4.46875 Z M 0.375 -0.328125 L 6.3125 -0.328125 L 6.3125 0.171875 L 0.375 0.171875 Z M 2.75 -4.78125 L 3.296875 -4.78125 C 3.242188 -4.40625 3.179688 -4 3.109375 -3.5625 C 3.046875 -3.132812 2.976562 -2.703125 2.90625 -2.265625 C 2.84375 -1.835938 2.773438 -1.429688 2.703125 -1.046875 C 2.628906 -0.671875 2.5625 -0.335938 2.5 -0.046875 L 1.953125 -0.046875 C 2.015625 -0.335938 2.082031 -0.675781 2.15625 -1.0625 C 2.226562 -1.457031 2.300781 -1.867188 2.375 -2.296875 C 2.457031 -2.734375 2.53125 -3.164062 2.59375 -3.59375 C 2.65625 -4.019531 2.707031 -4.414062 2.75 -4.78125 Z M 1.171875 -3.015625 L 4.859375 -3.015625 L 4.859375 -2.53125 L 1.171875 -2.53125 Z M 4.65625 -3.015625 L 4.71875 -3.015625 L 4.8125 -3.03125 L 5.203125 -3 C 5.179688 -2.789062 5.160156 -2.5625 5.140625 -2.3125 C 5.117188 -2.0625 5.097656 -1.800781 5.078125 -1.53125 C 5.054688 -1.257812 5.03125 -0.992188 5 -0.734375 C 4.96875 -0.472656 4.9375 -0.226562 4.90625 0 L 4.390625 -0.03125 C 4.421875 -0.269531 4.445312 -0.519531 4.46875 -0.78125 C 4.5 -1.050781 4.523438 -1.320312 4.546875 -1.59375 C 4.578125 -1.863281 4.597656 -2.113281 4.609375 -2.34375 C 4.628906 -2.582031 4.644531 -2.78125 4.65625 -2.9375 Z "/>
</g>
<g id="glyph-0-2">
<path d="M 1.5 -3.71875 L 6.25 -3.71875 L 6.25 -3.296875 L 1.5 -3.296875 Z M 1.59375 -1.765625 L 5.421875 -1.765625 L 5.421875 -1.359375 L 1.59375 -1.359375 Z M 2.578125 -4.296875 L 3.046875 -4.296875 L 3.046875 -2.59375 L 4.671875 -2.59375 L 4.671875 -4.296875 L 5.171875 -4.296875 L 5.171875 -2.203125 L 2.578125 -2.203125 Z M 5.28125 -1.765625 L 5.390625 -1.765625 L 5.46875 -1.796875 L 5.78125 -1.625 C 5.601562 -1.28125 5.363281 -0.984375 5.0625 -0.734375 C 4.757812 -0.492188 4.414062 -0.289062 4.03125 -0.125 C 3.65625 0.03125 3.25 0.15625 2.8125 0.25 C 2.382812 0.351562 1.941406 0.4375 1.484375 0.5 C 1.460938 0.4375 1.429688 0.363281 1.390625 0.28125 C 1.359375 0.195312 1.320312 0.125 1.28125 0.0625 C 1.707031 0.03125 2.125 -0.0234375 2.53125 -0.109375 C 2.945312 -0.191406 3.332031 -0.300781 3.6875 -0.4375 C 4.039062 -0.582031 4.351562 -0.757812 4.625 -0.96875 C 4.90625 -1.175781 5.125 -1.421875 5.28125 -1.703125 Z M 2.671875 -1.4375 C 2.890625 -1.132812 3.1875 -0.878906 3.5625 -0.671875 C 3.9375 -0.460938 4.363281 -0.289062 4.84375 -0.15625 C 5.332031 -0.03125 5.859375 0.0507812 6.421875 0.09375 C 6.378906 0.132812 6.335938 0.179688 6.296875 0.234375 C 6.265625 0.285156 6.234375 0.335938 6.203125 0.390625 C 6.171875 0.441406 6.144531 0.488281 6.125 0.53125 C 5.5625 0.46875 5.03125 0.359375 4.53125 0.203125 C 4.039062 0.0546875 3.597656 -0.132812 3.203125 -0.375 C 2.804688 -0.625 2.484375 -0.921875 2.234375 -1.265625 Z M 1.078125 -4.9375 L 6.328125 -4.9375 L 6.328125 -4.46875 L 1.078125 -4.46875 Z M 0.84375 -4.9375 L 1.34375 -4.9375 L 1.34375 -3.125 C 1.34375 -2.863281 1.332031 -2.570312 1.3125 -2.25 C 1.300781 -1.9375 1.269531 -1.613281 1.21875 -1.28125 C 1.175781 -0.957031 1.113281 -0.640625 1.03125 -0.328125 C 0.945312 -0.015625 0.832031 0.269531 0.6875 0.53125 C 0.65625 0.5 0.613281 0.46875 0.5625 0.4375 C 0.507812 0.414062 0.453125 0.390625 0.390625 0.359375 C 0.335938 0.335938 0.289062 0.320312 0.25 0.3125 C 0.382812 0.0507812 0.488281 -0.222656 0.5625 -0.515625 C 0.644531 -0.804688 0.707031 -1.101562 0.75 -1.40625 C 0.789062 -1.71875 0.816406 -2.019531 0.828125 -2.3125 C 0.835938 -2.601562 0.84375 -2.875 0.84375 -3.125 Z M 3.15625 -5.515625 L 3.65625 -5.640625 C 3.738281 -5.503906 3.816406 -5.351562 3.890625 -5.1875 C 3.960938 -5.03125 4.015625 -4.894531 4.046875 -4.78125 L 3.515625 -4.640625 C 3.492188 -4.753906 3.445312 -4.894531 3.375 -5.0625 C 3.3125 -5.226562 3.238281 -5.378906 3.15625 -5.515625 Z "/>
</g>
<g id="glyph-0-3">
</g>
<g id="glyph-0-4">
<path d="M 1.75 0.09375 C 1.5 0.09375 1.273438 0.0625 1.078125 0 C 0.890625 -0.0625 0.722656 -0.144531 0.578125 -0.25 C 0.429688 -0.351562 0.304688 -0.460938 0.203125 -0.578125 L 0.5 -0.984375 C 0.644531 -0.835938 0.8125 -0.707031 1 -0.59375 C 1.195312 -0.476562 1.4375 -0.421875 1.71875 -0.421875 C 1.914062 -0.421875 2.085938 -0.457031 2.234375 -0.53125 C 2.378906 -0.601562 2.492188 -0.707031 2.578125 -0.84375 C 2.660156 -0.976562 2.703125 -1.140625 2.703125 -1.328125 C 2.703125 -1.523438 2.65625 -1.695312 2.5625 -1.84375 C 2.46875 -1.988281 2.304688 -2.101562 2.078125 -2.1875 C 1.859375 -2.269531 1.5625 -2.3125 1.1875 -2.3125 L 1.1875 -2.78125 C 1.53125 -2.78125 1.796875 -2.816406 1.984375 -2.890625 C 2.179688 -2.972656 2.320312 -3.085938 2.40625 -3.234375 C 2.5 -3.378906 2.546875 -3.539062 2.546875 -3.71875 C 2.546875 -3.945312 2.46875 -4.128906 2.3125 -4.265625 C 2.164062 -4.410156 1.96875 -4.484375 1.71875 -4.484375 C 1.519531 -4.484375 1.332031 -4.4375 1.15625 -4.34375 C 0.988281 -4.257812 0.835938 -4.148438 0.703125 -4.015625 L 0.375 -4.40625 C 0.5625 -4.570312 0.765625 -4.707031 0.984375 -4.8125 C 1.203125 -4.925781 1.453125 -4.984375 1.734375 -4.984375 C 2.015625 -4.984375 2.257812 -4.929688 2.46875 -4.828125 C 2.6875 -4.734375 2.851562 -4.59375 2.96875 -4.40625 C 3.09375 -4.226562 3.15625 -4.007812 3.15625 -3.75 C 3.15625 -3.457031 3.078125 -3.210938 2.921875 -3.015625 C 2.765625 -2.816406 2.554688 -2.671875 2.296875 -2.578125 L 2.296875 -2.546875 C 2.484375 -2.503906 2.65625 -2.425781 2.8125 -2.3125 C 2.96875 -2.207031 3.09375 -2.066406 3.1875 -1.890625 C 3.28125 -1.722656 3.328125 -1.53125 3.328125 -1.3125 C 3.328125 -1.019531 3.253906 -0.769531 3.109375 -0.5625 C 2.972656 -0.351562 2.785156 -0.191406 2.546875 -0.078125 C 2.304688 0.0351562 2.039062 0.09375 1.75 0.09375 Z "/>
</g>
<g id="glyph-0-5">
<path d="M 0.921875 -2.609375 C 0.804688 -2.609375 0.703125 -2.648438 0.609375 -2.734375 C 0.523438 -2.816406 0.484375 -2.925781 0.484375 -3.0625 C 0.484375 -3.207031 0.523438 -3.320312 0.609375 -3.40625 C 0.703125 -3.488281 0.804688 -3.53125 0.921875 -3.53125 C 1.046875 -3.53125 1.148438 -3.488281 1.234375 -3.40625 C 1.328125 -3.320312 1.375 -3.207031 1.375 -3.0625 C 1.375 -2.925781 1.328125 -2.816406 1.234375 -2.734375 C 1.148438 -2.648438 1.046875 -2.609375 0.921875 -2.609375 Z M 0.921875 0.09375 C 0.804688 0.09375 0.703125 0.0507812 0.609375 -0.03125 C 0.523438 -0.125 0.484375 -0.238281 0.484375 -0.375 C 0.484375 -0.519531 0.523438 -0.632812 0.609375 -0.71875 C 0.703125 -0.800781 0.804688 -0.84375 0.921875 -0.84375 C 1.046875 -0.84375 1.148438 -0.800781 1.234375 -0.71875 C 1.328125 -0.632812 1.375 -0.519531 1.375 -0.375 C 1.375 -0.238281 1.328125 -0.125 1.234375 -0.03125 C 1.148438 0.0507812 1.046875 0.09375 0.921875 0.09375 Z "/>
</g>
<g id="glyph-0-6">
<path d="M 0.296875 0 L 0.296875 -0.359375 C 0.804688 -0.804688 1.222656 -1.210938 1.546875 -1.578125 C 1.878906 -1.953125 2.125 -2.296875 2.28125 -2.609375 C 2.445312 -2.929688 2.53125 -3.234375 2.53125 -3.515625 C 2.53125 -3.703125 2.5 -3.867188 2.4375 -4.015625 C 2.375 -4.160156 2.273438 -4.273438 2.140625 -4.359375 C 2.003906 -4.441406 1.835938 -4.484375 1.640625 -4.484375 C 1.441406 -4.484375 1.253906 -4.425781 1.078125 -4.3125 C 0.910156 -4.207031 0.757812 -4.078125 0.625 -3.921875 L 0.265625 -4.265625 C 0.460938 -4.484375 0.675781 -4.65625 0.90625 -4.78125 C 1.132812 -4.914062 1.398438 -4.984375 1.703125 -4.984375 C 2.003906 -4.984375 2.257812 -4.921875 2.46875 -4.796875 C 2.675781 -4.679688 2.835938 -4.515625 2.953125 -4.296875 C 3.078125 -4.085938 3.140625 -3.835938 3.140625 -3.546875 C 3.140625 -3.210938 3.054688 -2.878906 2.890625 -2.546875 C 2.734375 -2.222656 2.507812 -1.890625 2.21875 -1.546875 C 1.925781 -1.203125 1.59375 -0.847656 1.21875 -0.484375 C 1.34375 -0.492188 1.472656 -0.503906 1.609375 -0.515625 C 1.753906 -0.523438 1.890625 -0.53125 2.015625 -0.53125 L 3.375 -0.53125 L 3.375 0 Z "/>
</g>
<g id="glyph-0-7">
<path d="M 0.25 -3.03125 L 0.25 -3.484375 L 3.453125 -3.484375 L 3.453125 -3.03125 Z M 0.25 -1.4375 L 0.25 -1.890625 L 3.453125 -1.890625 L 3.453125 -1.4375 Z "/>
</g>
<g id="glyph-0-8">
<path d="M 1.328125 0 C 1.347656 -0.46875 1.382812 -0.894531 1.4375 -1.28125 C 1.5 -1.664062 1.582031 -2.03125 1.6875 -2.375 C 1.789062 -2.71875 1.925781 -3.050781 2.09375 -3.375 C 2.257812 -3.707031 2.460938 -4.039062 2.703125 -4.375 L 0.328125 -4.375 L 0.328125 -4.890625 L 3.390625 -4.890625 L 3.390625 -4.53125 C 3.109375 -4.15625 2.875 -3.796875 2.6875 -3.453125 C 2.507812 -3.117188 2.367188 -2.773438 2.265625 -2.421875 C 2.171875 -2.078125 2.097656 -1.707031 2.046875 -1.3125 C 2.003906 -0.914062 1.972656 -0.476562 1.953125 0 Z "/>
</g>
<g id="glyph-0-9">
<path d="M 1.859375 0.09375 C 1.546875 0.09375 1.273438 0 1.046875 -0.1875 C 0.816406 -0.375 0.640625 -0.65625 0.515625 -1.03125 C 0.390625 -1.414062 0.328125 -1.894531 0.328125 -2.46875 C 0.328125 -3.03125 0.390625 -3.492188 0.515625 -3.859375 C 0.640625 -4.234375 0.816406 -4.515625 1.046875 -4.703125 C 1.273438 -4.890625 1.546875 -4.984375 1.859375 -4.984375 C 2.171875 -4.984375 2.4375 -4.890625 2.65625 -4.703125 C 2.882812 -4.515625 3.0625 -4.234375 3.1875 -3.859375 C 3.3125 -3.492188 3.375 -3.03125 3.375 -2.46875 C 3.375 -1.894531 3.3125 -1.414062 3.1875 -1.03125 C 3.0625 -0.65625 2.882812 -0.375 2.65625 -0.1875 C 2.4375 0 2.171875 0.09375 1.859375 0.09375 Z M 1.859375 -0.40625 C 2.046875 -0.40625 2.207031 -0.476562 2.34375 -0.625 C 2.488281 -0.769531 2.597656 -0.992188 2.671875 -1.296875 C 2.742188 -1.597656 2.78125 -1.988281 2.78125 -2.46875 C 2.78125 -2.9375 2.742188 -3.320312 2.671875 -3.625 C 2.597656 -3.925781 2.488281 -4.144531 2.34375 -4.28125 C 2.207031 -4.425781 2.046875 -4.5 1.859375 -4.5 C 1.671875 -4.5 1.503906 -4.425781 1.359375 -4.28125 C 1.222656 -4.144531 1.113281 -3.925781 1.03125 -3.625 C 0.957031 -3.320312 0.921875 -2.9375 0.921875 -2.46875 C 0.921875 -1.988281 0.957031 -1.597656 1.03125 -1.296875 C 1.113281 -0.992188 1.222656 -0.769531 1.359375 -0.625 C 1.503906 -0.476562 1.671875 -0.40625 1.859375 -0.40625 Z "/>
</g>
<g id="glyph-0-10">
<path d="M 0.59375 0 L 0.59375 -0.515625 L 1.6875 -0.515625 L 1.6875 -4.15625 L 0.8125 -4.15625 L 0.8125 -4.546875 C 1.03125 -4.585938 1.21875 -4.632812 1.375 -4.6875 C 1.539062 -4.75 1.6875 -4.816406 1.8125 -4.890625 L 2.28125 -4.890625 L 2.28125 -0.515625 L 3.265625 -0.515625 L 3.265625 0 Z "/>
</g>
<g id="glyph-0-11">
<path d="M 0.921875 0.09375 C 0.804688 0.09375 0.703125 0.0507812 0.609375 -0.03125 C 0.523438 -0.125 0.484375 -0.238281 0.484375 -0.375 C 0.484375 -0.519531 0.523438 -0.632812 0.609375 -0.71875 C 0.703125 -0.800781 0.804688 -0.84375 0.921875 -0.84375 C 1.046875 -0.84375 1.148438 -0.800781 1.234375 -0.71875 C 1.328125 -0.632812 1.375 -0.519531 1.375 -0.375 C 1.375 -0.238281 1.328125 -0.125 1.234375 -0.03125 C 1.148438 0.0507812 1.046875 0.09375 0.921875 0.09375 Z "/>
</g>
<g id="glyph-0-12">
<path d="M 1.5625 0.09375 C 1.300781 0.09375 1.070312 0.046875 0.875 -0.046875 C 0.6875 -0.148438 0.523438 -0.269531 0.390625 -0.40625 L 0.71875 -0.796875 C 0.820312 -0.679688 0.945312 -0.585938 1.09375 -0.515625 C 1.238281 -0.453125 1.390625 -0.421875 1.546875 -0.421875 C 1.710938 -0.421875 1.867188 -0.457031 2.015625 -0.53125 C 2.160156 -0.613281 2.289062 -0.738281 2.40625 -0.90625 C 2.519531 -1.082031 2.609375 -1.3125 2.671875 -1.59375 C 2.734375 -1.882812 2.765625 -2.238281 2.765625 -2.65625 C 2.765625 -3.0625 2.722656 -3.398438 2.640625 -3.671875 C 2.554688 -3.941406 2.4375 -4.144531 2.28125 -4.28125 C 2.125 -4.425781 1.929688 -4.5 1.703125 -4.5 C 1.546875 -4.5 1.40625 -4.453125 1.28125 -4.359375 C 1.15625 -4.265625 1.054688 -4.132812 0.984375 -3.96875 C 0.910156 -3.8125 0.875 -3.617188 0.875 -3.390625 C 0.875 -3.171875 0.90625 -2.976562 0.96875 -2.8125 C 1.03125 -2.65625 1.125 -2.53125 1.25 -2.4375 C 1.382812 -2.351562 1.550781 -2.3125 1.75 -2.3125 C 1.90625 -2.3125 2.070312 -2.363281 2.25 -2.46875 C 2.4375 -2.570312 2.613281 -2.742188 2.78125 -2.984375 L 2.796875 -2.5 C 2.703125 -2.375 2.59375 -2.257812 2.46875 -2.15625 C 2.34375 -2.0625 2.207031 -1.988281 2.0625 -1.9375 C 1.925781 -1.882812 1.785156 -1.859375 1.640625 -1.859375 C 1.367188 -1.859375 1.128906 -1.914062 0.921875 -2.03125 C 0.722656 -2.144531 0.566406 -2.316406 0.453125 -2.546875 C 0.347656 -2.773438 0.296875 -3.054688 0.296875 -3.390625 C 0.296875 -3.703125 0.359375 -3.976562 0.484375 -4.21875 C 0.617188 -4.457031 0.789062 -4.644531 1 -4.78125 C 1.207031 -4.914062 1.441406 -4.984375 1.703125 -4.984375 C 1.929688 -4.984375 2.144531 -4.929688 2.34375 -4.828125 C 2.550781 -4.734375 2.726562 -4.585938 2.875 -4.390625 C 3.019531 -4.203125 3.132812 -3.960938 3.21875 -3.671875 C 3.300781 -3.378906 3.34375 -3.039062 3.34375 -2.65625 C 3.34375 -2.15625 3.289062 -1.726562 3.1875 -1.375 C 3.09375 -1.03125 2.960938 -0.75 2.796875 -0.53125 C 2.628906 -0.320312 2.4375 -0.164062 2.21875 -0.0625 C 2.007812 0.0390625 1.789062 0.09375 1.5625 0.09375 Z "/>
</g>
<g id="glyph-0-13">
<path d="M 2.015625 0.09375 C 1.773438 0.09375 1.554688 0.0390625 1.359375 -0.0625 C 1.160156 -0.164062 0.988281 -0.316406 0.84375 -0.515625 C 0.695312 -0.722656 0.582031 -0.972656 0.5 -1.265625 C 0.414062 -1.566406 0.375 -1.921875 0.375 -2.328125 C 0.375 -2.804688 0.421875 -3.210938 0.515625 -3.546875 C 0.617188 -3.890625 0.753906 -4.164062 0.921875 -4.375 C 1.085938 -4.582031 1.28125 -4.734375 1.5 -4.828125 C 1.71875 -4.929688 1.945312 -4.984375 2.1875 -4.984375 C 2.4375 -4.984375 2.65625 -4.9375 2.84375 -4.84375 C 3.03125 -4.75 3.191406 -4.628906 3.328125 -4.484375 L 2.984375 -4.109375 C 2.890625 -4.222656 2.773438 -4.3125 2.640625 -4.375 C 2.503906 -4.4375 2.359375 -4.46875 2.203125 -4.46875 C 1.972656 -4.46875 1.765625 -4.398438 1.578125 -4.265625 C 1.390625 -4.140625 1.234375 -3.921875 1.109375 -3.609375 C 0.992188 -3.296875 0.9375 -2.867188 0.9375 -2.328125 C 0.9375 -1.910156 0.976562 -1.554688 1.0625 -1.265625 C 1.144531 -0.984375 1.265625 -0.765625 1.421875 -0.609375 C 1.585938 -0.460938 1.785156 -0.390625 2.015625 -0.390625 C 2.171875 -0.390625 2.304688 -0.4375 2.421875 -0.53125 C 2.546875 -0.625 2.644531 -0.753906 2.71875 -0.921875 C 2.800781 -1.085938 2.84375 -1.28125 2.84375 -1.5 C 2.84375 -1.71875 2.804688 -1.90625 2.734375 -2.0625 C 2.671875 -2.226562 2.570312 -2.351562 2.4375 -2.4375 C 2.3125 -2.53125 2.148438 -2.578125 1.953125 -2.578125 C 1.796875 -2.578125 1.625 -2.523438 1.4375 -2.421875 C 1.257812 -2.328125 1.085938 -2.15625 0.921875 -1.90625 L 0.90625 -2.390625 C 1.007812 -2.523438 1.125 -2.640625 1.25 -2.734375 C 1.375 -2.835938 1.503906 -2.910156 1.640625 -2.953125 C 1.785156 -3.003906 1.921875 -3.03125 2.046875 -3.03125 C 2.328125 -3.03125 2.566406 -2.972656 2.765625 -2.859375 C 2.972656 -2.753906 3.128906 -2.585938 3.234375 -2.359375 C 3.347656 -2.128906 3.40625 -1.84375 3.40625 -1.5 C 3.40625 -1.1875 3.34375 -0.910156 3.21875 -0.671875 C 3.09375 -0.429688 2.921875 -0.242188 2.703125 -0.109375 C 2.492188 0.0234375 2.265625 0.09375 2.015625 0.09375 Z "/>
</g>
<g id="glyph-0-14">
<path d="M 2.046875 0.09375 C 1.722656 0.09375 1.429688 0.0195312 1.171875 -0.125 C 0.921875 -0.28125 0.71875 -0.5 0.5625 -0.78125 C 0.414062 -1.0625 0.34375 -1.40625 0.34375 -1.8125 C 0.34375 -2.21875 0.421875 -2.5625 0.578125 -2.84375 C 0.742188 -3.125 0.957031 -3.335938 1.21875 -3.484375 C 1.488281 -3.640625 1.78125 -3.71875 2.09375 -3.71875 C 2.320312 -3.71875 2.519531 -3.675781 2.6875 -3.59375 C 2.863281 -3.507812 3.015625 -3.40625 3.140625 -3.28125 L 2.84375 -2.890625 C 2.738281 -2.984375 2.625 -3.054688 2.5 -3.109375 C 2.382812 -3.171875 2.253906 -3.203125 2.109375 -3.203125 C 1.890625 -3.203125 1.691406 -3.144531 1.515625 -3.03125 C 1.347656 -2.914062 1.210938 -2.753906 1.109375 -2.546875 C 1.015625 -2.335938 0.96875 -2.09375 0.96875 -1.8125 C 0.96875 -1.53125 1.015625 -1.285156 1.109375 -1.078125 C 1.210938 -0.867188 1.347656 -0.707031 1.515625 -0.59375 C 1.679688 -0.476562 1.875 -0.421875 2.09375 -0.421875 C 2.257812 -0.421875 2.414062 -0.453125 2.5625 -0.515625 C 2.707031 -0.585938 2.835938 -0.675781 2.953125 -0.78125 L 3.21875 -0.375 C 3.050781 -0.226562 2.863281 -0.113281 2.65625 -0.03125 C 2.457031 0.0507812 2.253906 0.09375 2.046875 0.09375 Z "/>
</g>
</g>
</defs>
<g fill="rgb(94.117647%, 53.333333%, 24.313725%)" fill-opacity="1">
<use xlink:href="#glyph-0-0" x="30" y="26.666992"/>
<use xlink:href="#glyph-0-1" x="37" y="26.666992"/>
<use xlink:href="#glyph-0-2" x="44" y="26.666992"/>
<use xlink:href="#glyph-0-3" x="51" y="26.666992"/>
<use xlink:href="#glyph-0-4" x="52" y="26.666992"/>
<use xlink:href="#glyph-0-5" x="56" y="26.666992"/>
<use xlink:href="#glyph-0-6" x="58" y="26.666992"/>
<use xlink:href="#glyph-0-3" x="62" y="26.666992"/>
<use xlink:href="#glyph-0-7" x="63" y="26.666992"/>
<use xlink:href="#glyph-0-3" x="67" y="26.666992"/>
<use xlink:href="#glyph-0-8" x="68" y="26.666992"/>
<use xlink:href="#glyph-0-9" x="72" y="26.666992"/>
<use xlink:href="#glyph-0-10" x="76" y="26.666992"/>
<use xlink:href="#glyph-0-11" x="80" y="26.666992"/>
<use xlink:href="#glyph-0-12" x="82" y="26.666992"/>
<use xlink:href="#glyph-0-13" x="86" y="26.666992"/>
</g>
<g fill="rgb(94.117647%, 53.333333%, 24.313725%)" fill-opacity="1">
<use xlink:href="#glyph-0-14" x="90" y="26.666992"/>
</g>
</svg>
