<?xml version="1.0" encoding="UTF-8"?>
<svg xmlns="http://www.w3.org/2000/svg" xmlns:xlink="http://www.w3.org/1999/xlink" width="1280" height="720" viewBox="0 0 1280 720">
<defs>
<g>
<g id="glyph-0-0">
<path d="M 0.5625 0 L 0.5625 -4.078125 L 1.765625 -4.078125 C 2.046875 -4.078125 2.289062 -4.039062 2.5 -3.96875 C 2.707031 -3.90625 2.867188 -3.800781 2.984375 -3.65625 C 3.109375 -3.507812 3.171875 -3.316406 3.171875 -3.078125 C 3.171875 -2.941406 3.144531 -2.8125 3.09375 -2.6875 C 3.050781 -2.570312 2.984375 -2.472656 2.890625 -2.390625 C 2.804688 -2.304688 2.703125 -2.242188 2.578125 -2.203125 L 2.578125 -2.171875 C 2.816406 -2.117188 3.015625 -2.007812 3.171875 -1.84375 C 3.328125 -1.6875 3.40625 -1.46875 3.40625 -1.1875 C 3.40625 -0.925781 3.335938 -0.707031 3.203125 -0.53125 C 3.078125 -0.351562 2.894531 -0.21875 2.65625 -0.125 C 2.425781 -0.0390625 2.160156 0 1.859375 0 Z M 1.078125 -2.34375 L 1.671875 -2.34375 C 2.023438 -2.34375 2.273438 -2.398438 2.421875 -2.515625 C 2.578125 -2.640625 2.65625 -2.804688 2.65625 -3.015625 C 2.65625 -3.253906 2.578125 -3.421875 2.421875 -3.515625 C 2.265625 -3.617188 2.023438 -3.671875 1.703125 -3.671875 L 1.078125 -3.671875 Z M 1.078125 -0.40625 L 1.78125 -0.40625 C 2.132812 -0.40625 2.410156 -0.46875 2.609375 -0.59375 C 2.804688 -0.726562 2.90625 -0.9375 2.90625 -1.21875 C 2.90625 -1.46875 2.804688 -1.648438 2.609375 -1.765625 C 2.421875 -1.890625 2.144531 -1.953125 1.78125 -1.953125 L 1.078125 -1.953125 Z "/>
</g>
</g>
</defs>
<g fill="rgb(61.568627%, 65.490196%, 70.196078%)" fill-opacity="1">
<use xlink:href="#glyph-0-0" x="30" y="25.555664"/>
</g>
</svg>
