<?xml version="1.0" encoding="UTF-8"?>
<svg xmlns="http://www.w3.org/2000/svg" xmlns:xlink="http://www.w3.org/1999/xlink" width="1280" height="720" viewBox="0 0 1280 720">
<defs>
<g>
<g id="glyph-0-0">
<path d="M 0.609375 0 L 0.609375 -4.484375 L 3.1875 -4.484375 L 3.1875 -4 L 1.171875 -4 L 1.171875 -2.484375 L 2.890625 -2.484375 L 2.890625 -2.015625 L 1.171875 -2.015625 L 1.171875 0 Z "/>
</g>
<g id="glyph-0-1">
<path d="M 0.625 0 L 0.78125 -1.390625 L 0.234375 -1.390625 L 0.234375 -1.78125 L 0.828125 -1.78125 L 0.953125 -2.796875 L 0.375 -2.796875 L 0.375 -3.1875 L 1 -3.1875 L 1.15625 -4.4375 L 1.515625 -4.4375 L 1.359375 -3.1875 L 2.265625 -3.1875 L 2.4375 -4.4375 L 2.796875 -4.4375 L 2.640625 -3.1875 L 3.1875 -3.1875 L 3.1875 -2.796875 L 2.59375 -2.796875 L 2.46875 -1.78125 L 3.046875 -1.78125 L 3.046875 -1.390625 L 2.421875 -1.390625 L 2.25 0 L 1.890625 0 L 2.046875 -1.390625 L 1.15625 -1.390625 L 0.984375 0 Z M 1.1875 -1.78125 L 2.109375 -1.78125 L 2.234375 -2.796875 L 1.3125 -2.796875 Z "/>
</g>
</g>
</defs>
<g fill="rgb(61.568627%, 65.490196%, 70.196078%)" fill-opacity="1">
<use xlink:href="#glyph-0-0" x="30" y="26.110352"/>
<use xlink:href="#glyph-0-1" x="33" y="26.110352"/>
</g>
</svg>
