<?xml version="1.0" encoding="UTF-8"?>
<svg xmlns="http://www.w3.org/2000/svg" xmlns:xlink="http://www.w3.org/1999/xlink" width="1280" height="720" viewBox="0 0 1280 720">
<defs>
<g>
<g id="glyph-0-0">
<path d="M 0.265625 0 L 0.265625 -0.328125 C 0.734375 -0.734375 1.117188 -1.109375 1.421875 -1.453125 C 1.722656 -1.796875 1.945312 -2.113281 2.09375 -2.40625 C 2.25 -2.695312 2.328125 -2.96875 2.328125 -3.21875 C 2.328125 -3.382812 2.296875 -3.535156 2.234375 -3.671875 C 2.171875 -3.804688 2.078125 -3.910156 1.953125 -3.984375 C 1.835938 -4.066406 1.6875 -4.109375 1.5 -4.109375 C 1.3125 -4.109375 1.140625 -4.054688 0.984375 -3.953125 C 0.828125 -3.859375 0.6875 -3.738281 0.5625 -3.59375 L 0.25 -3.90625 C 0.425781 -4.101562 0.617188 -4.257812 0.828125 -4.375 C 1.035156 -4.5 1.28125 -4.5625 1.5625 -4.5625 C 1.832031 -4.5625 2.0625 -4.503906 2.25 -4.390625 C 2.445312 -4.285156 2.597656 -4.132812 2.703125 -3.9375 C 2.816406 -3.738281 2.875 -3.507812 2.875 -3.25 C 2.875 -2.945312 2.796875 -2.640625 2.640625 -2.328125 C 2.492188 -2.023438 2.289062 -1.71875 2.03125 -1.40625 C 1.769531 -1.09375 1.460938 -0.769531 1.109375 -0.4375 C 1.222656 -0.445312 1.34375 -0.457031 1.46875 -0.46875 C 1.601562 -0.476562 1.726562 -0.484375 1.84375 -0.484375 L 3.078125 -0.484375 L 3.078125 0 Z "/>
</g>
</g>
</defs>
<g fill="rgb(61.568627%, 65.490196%, 70.196078%)" fill-opacity="1">
<use xlink:href="#glyph-0-0" x="30" y="26.110352"/>
</g>
</svg>
